<?xml version="1.0"?>
<svg width="131" height="160" xmlns="http://www.w3.org/2000/svg" xmlns:svg="http://www.w3.org/2000/svg" xmlns:xlink="http://www.w3.org/1999/xlink">
 <!-- Created with SVG-edit - http://svg-edit.googlecode.com/ -->
 <defs>
  <symbol id="svg_2" height="22" width="18" xmlns:svg="http://www.w3.org/2000/svg" xmlns="http://www.w3.org/2000/svg">
   <g>
    <title>Layer 1</title>
    <path d="m16,2l-4.18,0c-0.42,-1.16 -1.52,-2 -2.82,-2c-1.3,0 -2.4,0.84 -2.82,2l-4.18,0c-1.1,0 -2,0.9 -2,2l0,16c0,1.1 0.9,2 2,2l14,0c1.1,0 2,-0.9 2,-2l0,-16c0,-1.1 -0.9,-2 -2,-2zm-7,0c0.55,0 1,0.45 1,1s-0.45,1 -1,1s-1,-0.45 -1,-1s0.45,-1 1,-1zm7,18l-14,0l0,-16l2,0l0,3l10,0l0,-3l2,0l0,16z" id="svg_1" fill="#1b415f"/>
   </g>
  </symbol>
 </defs>
 <g>
  <title>Layer 1</title>
  <use x="0" y="0" transform="matrix(7.2727274894714355,0,0,7.2727274894714355,0,0) " xlink:href="#svg_2" id="svg_3"/>
  <g id="svg_4"/>
 </g>
</svg>